<?xml version="1.0" encoding="UTF-8"?>
<svg xmlns="http://www.w3.org/2000/svg" version="1.1" viewBox="0 0 405.8 110.1">
  <!-- Generator: Adobe Illustrator 28.7.1, SVG Export Plug-In . SVG Version: 1.2.0 Build 142)  -->
  <g>
    <g id="Layer_1">
      <g>
        <rect x=".8" y=".7" width="376.4" height="108.7" fill="#ffcb05"/>
        <path d="M340.5,78.9c0,.6-.5,1.2-1.2,1.2h-58c-.7,0-1.2-.5-1.2-1.2v-4.6c0-.6.5-1.2,1.2-1.2h58c.7,0,1.2.5,1.2,1.2v4.6h0ZM333.6,84.7h-8.1v-2.3h8.1v2.3ZM295.3,84.7h-8.1v-2.3h8.1v2.3ZM319.6,58v12.8h-18.6s0-12.8,0-12.8h18.6ZM284.8,65c0-3.2,2.6-5.8,5.8-5.8h0c.6,0,1.2-.5,1.2-1.2v-25.5h37.1v25.5c0,.6.5,1.2,1.2,1.2,3.2,0,5.8,2.6,5.8,5.8v5.8h-13.9v-13.9c0-.6-.5-1.2-1.2-1.2h-20.9c-.6,0-1.2.5-1.2,1.2v13.9h-13.9s0-5.8,0-5.8ZM284.8,47.6v-8.1h4.6v8.1h-4.6ZM331.2,39.4h4.6v8.1h-4.6v-8.1ZM339.4,70.8h-1.2v-5.8c0-4.1-3-7.5-7-8v-7h5.8c.6,0,1.2-.5,1.2-1.2v-10.4c0-.6-.5-1.2-1.2-1.2h-5.8v-5.8c0-.6-.5-1.2-1.2-1.2h-38.3v-7h-2.3v14h-5.8c-.6,0-1.2.5-1.2,1.2v10.4c0,.6.5,1.2,1.2,1.2h5.8v7c-3.9.6-7,4-7,8v5.8h-1.2c-1.9,0-3.5,1.6-3.5,3.5v4.6c0,1.9,1.6,3.5,3.5,3.5h3.5v3.5c0,.6.5,1.2,1.2,1.2h10.4c.6,0,1.2-.5,1.2-1.2v-3.5h25.5v3.5c0,.6.5,1.2,1.2,1.2h10.4c.6,0,1.2-.5,1.2-1.2v-3.5h3.5c1.9,0,3.5-1.6,3.5-3.5v-4.6c0-1.9-1.6-3.5-3.5-3.5Z" fill="#010101" fill-rule="evenodd"/>
        <rect x="304.5" y="60.3" width="11.6" height="2.3" fill="#010101"/>
        <rect x="304.5" y="65" width="11.6" height="2.3" fill="#010101"/>
        <path d="M294.1,67.3h-4.6v-2.3h4.6v2.3ZM295.3,62.7h-7c-.6,0-1.2.5-1.2,1.2v4.6c0,.6.5,1.2,1.2,1.2h7c.6,0,1.2-.5,1.2-1.2v-4.6c0-.6-.5-1.2-1.2-1.2Z" fill="#010101" fill-rule="evenodd"/>
        <path d="M326.6,65h4.6v2.3h-4.6v-2.3ZM324.3,63.8v4.6c0,.6.5,1.2,1.2,1.2h7c.6,0,1.2-.5,1.2-1.2v-4.6c0-.6-.5-1.2-1.2-1.2h-7c-.6,0-1.2.5-1.2,1.2Z" fill="#010101" fill-rule="evenodd"/>
        <path d="M296.4,38.3h27.9v11.6h-27.9v-11.6ZM295.3,52.2h30.2c.6,0,1.2-.5,1.2-1.2v-13.9c0-.6-.5-1.2-1.2-1.2h-30.2c-.6,0-1.2.5-1.2,1.2v13.9c0,.6.5,1.2,1.2,1.2Z" fill="#010101" fill-rule="evenodd"/>
        <path d="M65.8,34.8c-.4,0-.9-.2-1.5-.2-.6,0-1.3,0-2,0-2.1,0-4,.2-5.7.5-1.7.3-3.2.7-4.5,1.2v21.1h8v-16.2c.2,0,.5-.1.8-.2.3,0,.6,0,.9,0,.5,0,1,0,1.4.1.5,0,.9.2,1.2.4l1.4-6.5ZM88.3,56.1v-21.1h-8v16c-.2,0-.4.1-.7.2-.3,0-.6,0-1,0-.7,0-1.3-.2-1.7-.5-.4-.3-.6-.8-.6-1.5v-14.2h-8v14c0,2.1.4,3.7,1.1,5,.8,1.3,1.9,2.2,3.4,2.8,1.5.6,3.4.9,5.7.9,1.2,0,2.5,0,3.7-.2,1.2-.1,2.3-.3,3.4-.6,1-.2,1.9-.5,2.6-.9ZM108.1,56.2l-2.4-5.9c-.3.2-.7.4-1.1.6-.4.1-.9.2-1.4.2-.7,0-1.3-.2-1.8-.7-.5-.4-.9-1-1.2-1.8-.3-.8-.4-1.6-.4-2.6s.1-1.8.4-2.6c.3-.8.6-1.4,1.1-1.8.5-.4,1.1-.7,1.9-.7.5,0,1,0,1.4.2.5.1.8.3,1.1.6l2.4-5.7c-.5-.3-1-.6-1.6-.8-.6-.2-1.3-.4-2-.5-.8-.1-1.7-.2-2.7-.2-1.4,0-2.8.2-4,.7-1.2.5-2.3,1.2-3.3,2.2-1,1-1.7,2.2-2.2,3.6-.5,1.4-.8,3.1-.8,5,0,1.9.3,3.6.8,5,.5,1.4,1.3,2.7,2.2,3.6.9,1,2,1.7,3.3,2.2,1.2.5,2.6.7,4,.7s1.9,0,2.7-.2c.8-.1,1.4-.3,2-.5.6-.2,1.1-.5,1.6-.8ZM133.2,57.2l-6.4-11.9,5.8-10.2h-8.9l-4.9,9.3h0v-19.4h-7.9v32.3h7.9v-10.9h0l5.6,10.9h8.8ZM48.8,56.8v-6.5c-.2.1-.5.2-.8.3-.3,0-.6.1-1,.1-.4,0-.7,0-.9-.1-.3,0-.5-.3-.6-.5-.1-.2-.2-.6-.2-1v-8.1h3.5v-5.9h-3.5v-6.6l-7.8,2.1v4.5h-2.4v5.9h2.4v8.6c0,1.8.2,3.2.7,4.4.4,1.2,1.2,2.1,2.2,2.7,1,.6,2.3.9,4,.9s1.2,0,1.8-.1c.6,0,1.1-.2,1.6-.3.5-.1.9-.3,1.2-.4Z" fill="#010101"/>
        <path d="M150.4,45.9c0,1.6-.2,3-.5,4.1-.4,1.1-.9,2.1-1.5,2.8-.6.7-1.4,1.2-2.2,1.6-.9.3-1.8.5-2.8.5-.5,0-1,0-1.5,0-.5,0-.9-.2-1.3-.3-.4-.1-.7-.2-1-.3v-15.8c.3-.2.7-.3,1.2-.5.5-.1.9-.2,1.4-.3.5,0,1-.1,1.5-.1,1.3,0,2.5.3,3.5,1,1,.7,1.8,1.6,2.3,2.9.5,1.3.8,2.8.8,4.6M153.8,45.7c0-1.7-.2-3.2-.7-4.6-.5-1.4-1.1-2.5-2-3.5-.9-.9-1.9-1.7-3-2.2-1.2-.5-2.5-.7-3.9-.8-.6,0-1.1,0-1.7.1-.6,0-1.1.2-1.6.4-.5.2-.9.3-1.3.5v-10.8h-3.5v31.2c.6.3,1.2.6,2,.8.7.2,1.5.4,2.4.6.9.1,1.7.2,2.7.2,1.6,0,3-.2,4.3-.7,1.3-.5,2.4-1.2,3.4-2.2.9-1,1.7-2.2,2.2-3.7.5-1.5.8-3.3.8-5.4Z" fill="#010101"/>
        <path d="M172,46.1c0,1.3-.1,2.5-.4,3.5-.2,1.1-.6,2-1.1,2.8-.5.8-1.1,1.4-1.9,1.8-.8.4-1.6.6-2.6.7-1,0-1.9-.2-2.6-.7-.8-.4-1.4-1-1.9-1.8-.5-.8-.9-1.7-1.1-2.8-.2-1.1-.4-2.2-.4-3.5s.1-2.4.4-3.5c.2-1.1.6-2,1.1-2.7.5-.8,1.1-1.4,1.9-1.8.8-.4,1.6-.6,2.6-.6,1,0,1.9.2,2.6.6.8.4,1.4,1,1.9,1.8.5.8.9,1.7,1.1,2.7.2,1.1.4,2.2.4,3.5M175.4,46.1c0-1.7-.2-3.2-.6-4.6-.4-1.4-1-2.6-1.8-3.6-.8-1-1.8-1.8-2.9-2.4-1.2-.6-2.5-.9-4.1-.9-1.5,0-2.9.3-4.1.9-1.2.6-2.2,1.4-2.9,2.4-.8,1-1.4,2.3-1.8,3.6-.4,1.4-.6,2.9-.6,4.6s.2,3.2.6,4.6c.4,1.4,1,2.6,1.8,3.7.8,1,1.8,1.9,2.9,2.4,1.2.6,2.5.9,4.1.9,1.5,0,2.9-.3,4.1-.9,1.2-.6,2.2-1.4,2.9-2.4.8-1,1.4-2.3,1.8-3.7.4-1.4.6-2.9.6-4.6Z" fill="#010101"/>
        <path d="M193.7,46.1c0,1.3-.1,2.5-.4,3.5-.2,1.1-.6,2-1.1,2.8-.5.8-1.1,1.4-1.9,1.8-.8.4-1.6.6-2.6.7-1,0-1.9-.2-2.6-.7-.8-.4-1.4-1-1.9-1.8-.5-.8-.9-1.7-1.1-2.8-.2-1.1-.4-2.2-.4-3.5s.1-2.4.4-3.5c.2-1.1.6-2,1.1-2.7.5-.8,1.1-1.4,1.9-1.8.8-.4,1.6-.6,2.6-.6,1,0,1.9.2,2.6.6.8.4,1.4,1,1.9,1.8.5.8.9,1.7,1.1,2.7.2,1.1.4,2.2.4,3.5M197.1,46.1c0-1.7-.2-3.2-.6-4.6-.4-1.4-1-2.6-1.8-3.6-.8-1-1.8-1.8-2.9-2.4-1.2-.6-2.5-.9-4.1-.9-1.5,0-2.9.3-4.1.9-1.2.6-2.2,1.4-2.9,2.4-.8,1-1.4,2.3-1.8,3.6-.4,1.4-.6,2.9-.6,4.6s.2,3.2.6,4.6c.4,1.4,1,2.6,1.8,3.7.8,1,1.8,1.9,2.9,2.4,1.2.6,2.5.9,4.1.9,1.5,0,2.9-.3,4.1-.9,1.2-.6,2.2-1.4,2.9-2.4.8-1,1.4-2.3,1.8-3.7.4-1.4.6-2.9.6-4.6Z" fill="#010101"/>
        <polygon points="219 57.2 208.5 45.6 218.5 35.1 214.3 35.1 204.8 45.2 204.7 45.2 204.7 24.9 201.3 24.9 201.3 57.2 204.7 57.2 204.7 45.8 204.8 45.8 215 57.2 219 57.2" fill="#010101"/>
        <path d="M236.1,43.7l-12.1,1.7c0-1.7.3-3.1.9-4.3.5-1.2,1.3-2.2,2.2-2.8,1-.7,2.1-1,3.4-1,1.1,0,2.1.2,2.9.7.8.5,1.5,1.2,1.9,2.1.5.9.7,2.1.7,3.6M239.4,44.1c0-2-.4-3.7-1.1-5.1-.7-1.4-1.7-2.5-3-3.3-1.3-.8-2.9-1.1-4.7-1.1-1.5,0-2.9.3-4,.8-1.2.6-2.2,1.3-3,2.4-.8,1-1.5,2.2-1.9,3.6-.4,1.4-.7,3-.7,4.7,0,2.4.4,4.5,1.3,6.2.8,1.7,2.1,3,3.6,3.9,1.6.9,3.5,1.4,5.7,1.4,1,0,1.9,0,2.8-.2.9-.1,1.7-.3,2.5-.5.8-.2,1.4-.5,2-.8l-1.1-2.6c-.5.3-1.1.5-1.7.7-.7.2-1.4.4-2.1.5-.7.1-1.5.2-2.2.2-1.4,0-2.7-.3-3.7-.8-1.1-.5-1.9-1.3-2.6-2.4-.6-1.1-1-2.4-1.2-3.9l15.1-2.2c0-.3,0-.5,0-.8,0-.2,0-.5,0-.7Z" fill="#010101"/>
        <path d="M254.1,34.8c-.3,0-.6,0-1-.1-.4,0-.8,0-1.2,0-1,0-2,0-3,.2-1,.1-1.9.3-2.8.5-.9.2-1.6.5-2.3.8v21.1h3.5v-19c.3-.2.7-.3,1.2-.4.5-.1.9-.2,1.5-.2.5,0,1,0,1.5,0s.7,0,1,0c.3,0,.7,0,.9.1l.7-2.9Z" fill="#010101"/>
        <path d="M271.1,51.3c0-1-.2-1.9-.6-2.6-.4-.7-.8-1.3-1.5-1.8-.6-.5-1.3-.9-2.1-1.3-.8-.4-1.6-.7-2.4-1-.8-.3-1.6-.6-2.2-.9-.6-.3-1.1-.7-1.5-1.2-.4-.5-.6-1.1-.6-1.9,0-.6.2-1.2.5-1.7.3-.5.8-.9,1.4-1.2.6-.3,1.4-.4,2.3-.4.6,0,1.2,0,1.7.2.6.1,1.1.3,1.6.5.5.2.9.4,1.3.6l1.2-2.4c-.7-.5-1.6-.8-2.7-1.1-1-.3-2.2-.4-3.5-.4-1.6,0-2.9.3-4,.8-1.1.5-1.9,1.2-2.5,2.1-.6.9-.9,1.9-.9,3.1,0,1,.2,1.8.5,2.5.3.7.8,1.3,1.4,1.8.6.5,1.3.9,2,1.3.7.3,1.5.7,2.3.9.9.3,1.6.6,2.3,1,.7.3,1.2.8,1.6,1.3.4.5.6,1.1.6,1.9,0,.7-.2,1.4-.6,1.9-.4.5-.9.9-1.6,1.2-.7.3-1.5.4-2.5.4-.6,0-1.2,0-1.9-.2-.7-.1-1.3-.3-1.9-.5-.6-.2-1.1-.4-1.5-.7l-1.2,2.6c.5.3,1.2.6,1.9.8.7.2,1.5.4,2.3.6.8.1,1.6.2,2.4.2,1.7,0,3.2-.3,4.5-.8,1.2-.5,2.2-1.3,2.8-2.2.6-1,1-2.1,1-3.4" fill="#010101"/>
        <path d="M209.5,79.9c0-.8-.2-1.4-.6-2-.4-.6-.8-1.1-1.5-1.5-.6-.4-1.3-.5-2-.6-.8,0-1.4.2-2,.6-.6.4-1.1.8-1.5,1.5-.4.6-.5,1.3-.6,2,0,.8.2,1.4.6,2,.4.6.8,1.1,1.5,1.5.6.4,1.3.5,2,.6.8,0,1.4-.2,2-.6.6-.4,1.1-.8,1.5-1.5.4-.6.5-1.3.6-2" fill="#010101"/>
        <path d="M225.3,82.6l-1-2.2c-.4.3-.9.5-1.5.7-.6.2-1.2.3-1.8.3-.7,0-1.3-.1-2-.4-.6-.3-1.2-.7-1.7-1.3-.5-.6-.9-1.4-1.2-2.3-.3-.9-.5-2.1-.5-3.4,0-1.3.2-2.4.5-3.4.3-.9.7-1.7,1.2-2.3.5-.6,1.1-1,1.7-1.3.6-.3,1.3-.4,2-.4.6,0,1.2,0,1.8.3.6.2,1.1.4,1.5.7l1-2.1c-.6-.4-1.3-.7-2.1-.9-.8-.2-1.7-.3-2.6-.4-.8,0-1.6.1-2.4.4-.8.2-1.5.6-2.2,1.1-.7.5-1.3,1.1-1.8,1.9-.5.8-.9,1.7-1.2,2.8-.3,1.1-.4,2.3-.5,3.7,0,1.4.2,2.6.5,3.7.3,1.1.7,2,1.2,2.8.5.8,1.1,1.4,1.8,1.9.7.5,1.4.9,2.2,1.1.8.2,1.6.4,2.4.4.9,0,1.8-.1,2.6-.3.8-.2,1.5-.5,2.1-.9" fill="#010101"/>
        <path d="M240.3,74.1c0,1.1-.1,2.1-.3,3-.2.9-.5,1.7-.9,2.4-.4.7-1,1.2-1.6,1.5-.6.4-1.4.5-2.2.6-.9,0-1.6-.2-2.2-.6-.6-.4-1.2-.9-1.6-1.5-.4-.7-.7-1.5-.9-2.4-.2-.9-.3-1.9-.3-3s.1-2.1.3-3c.2-.9.5-1.7.9-2.3.4-.7,1-1.2,1.6-1.5.6-.4,1.4-.5,2.2-.5.9,0,1.6.2,2.2.5.6.4,1.2.9,1.6,1.5.4.7.7,1.4.9,2.3.2.9.3,1.9.3,3M243.2,74.1c0-1.4-.2-2.7-.5-3.9-.3-1.2-.9-2.2-1.5-3.1-.7-.9-1.5-1.6-2.5-2.1-1-.5-2.1-.7-3.4-.7-1.3,0-2.5.3-3.4.7-1,.5-1.8,1.2-2.5,2.1-.7.9-1.2,1.9-1.5,3.1-.3,1.2-.5,2.5-.5,3.9s.2,2.7.5,3.9c.3,1.2.9,2.2,1.5,3.1.7.9,1.5,1.6,2.5,2.1,1,.5,2.1.7,3.4.7,1.3,0,2.5-.3,3.4-.7,1-.5,1.8-1.2,2.5-2.1.7-.9,1.2-1.9,1.5-3.1.3-1.2.5-2.5.5-3.9Z" fill="#010101"/>
        <path d="M271.1,83.5v-13.2c0-1.2-.3-2.3-.8-3.2-.5-.9-1.3-1.6-2.2-2.1-1-.5-2.1-.7-3.4-.7-.9,0-1.8.1-2.6.3-.8.2-1.5.5-2.1.8-.6.3-1.1.7-1.5,1-.3-.4-.8-.8-1.3-1.1-.6-.3-1.2-.6-2-.8-.8-.2-1.6-.3-2.6-.3-1.2,0-2.4.1-3.5.4-1.1.2-2.1.6-3,1v17.9h2.9v-16.2c.5-.2,1-.4,1.7-.5.6-.1,1.3-.2,2.1-.2s1.6.1,2.3.4c.7.3,1.2.7,1.5,1.2.4.5.6,1.1.6,1.8v13.4h2.9v-15.2c.5-.5,1-.9,1.7-1.2.7-.3,1.5-.4,2.4-.4.8,0,1.5.2,2.1.5.6.3,1.1.7,1.4,1.3.3.6.5,1.3.5,2.1v13h2.9Z" fill="#010101"/>
        <path d="M191.7,82.9v-5c0-.5-.1-1-.3-1.3-.2-.4-.5-.6-1-.8-.4-.2-1-.3-1.6-.3-.5,0-1,0-1.5.1-.5,0-.9.2-1.2.4v7h1.1v-6.3c.2,0,.4-.1.7-.2.3,0,.6,0,.9,0,.4,0,.7,0,1,.2.3.1.5.3.6.6.1.2.2.5.2.9v4.9h1.1ZM181.4,79.3c0,.4,0,.8-.1,1.2,0,.4-.2.7-.4.9-.2.3-.4.5-.6.6-.2.1-.5.2-.9.2-.3,0-.6,0-.9-.2-.2-.1-.5-.3-.6-.6-.2-.3-.3-.6-.4-.9,0-.4-.1-.7-.1-1.2s0-.8.1-1.2c0-.3.2-.7.4-.9.2-.3.4-.5.6-.6.2-.1.5-.2.9-.2.3,0,.6,0,.9.2.2.1.5.3.6.6.2.3.3.6.4.9,0,.4.1.7.1,1.2ZM182.6,79.3c0-.5,0-1.1-.2-1.5-.1-.5-.3-.9-.6-1.2s-.6-.6-1-.8c-.4-.2-.8-.3-1.3-.3-.5,0-1,0-1.3.3-.4.2-.7.5-1,.8-.3.3-.5.7-.6,1.2-.1.5-.2,1-.2,1.5s0,1.1.2,1.5c.1.5.3.9.6,1.2.3.3.6.6,1,.8.4.2.8.3,1.3.3.5,0,1,0,1.3-.3.4-.2.7-.5,1-.8.3-.3.5-.7.6-1.2.1-.5.2-1,.2-1.5ZM172.8,82.9v-7.3h-1.1v7.3h1.1ZM172.9,73.4c0-.1,0-.2,0-.4,0-.1-.1-.2-.3-.3-.1,0-.2,0-.4,0-.1,0-.3,0-.4,0-.1,0-.2.1-.3.3,0,.1,0,.2,0,.4,0,.1,0,.2,0,.3,0,.1.1.2.3.2.1,0,.2,0,.4,0,.1,0,.3,0,.4,0,.1,0,.2-.1.3-.2,0-.1,0-.2,0-.3ZM168.3,82.9v-1c0,0-.1,0-.2,0,0,0-.2,0-.3,0-.2,0-.4,0-.6-.1-.2,0-.3-.2-.4-.3,0-.2-.1-.4-.2-.6v-4.5h1.6v-.9h-1.6v-2.1l-1.1.4v1.8h-1.1v.9h1.1v4.6c0,.4,0,.8.2,1.1.2.3.4.5.7.7.3.1.6.2,1,.2s.3,0,.4,0c.1,0,.2,0,.3,0ZM160.6,79.3c0,.4,0,.8-.1,1.2,0,.4-.2.7-.4.9-.2.3-.4.5-.6.6-.2.1-.5.2-.9.2-.3,0-.6,0-.9-.2-.2-.1-.5-.3-.6-.6-.2-.3-.3-.6-.4-.9,0-.4-.1-.7-.1-1.2s0-.8.1-1.2c0-.3.2-.7.4-.9.2-.3.4-.5.6-.6.2-.1.5-.2.9-.2.3,0,.6,0,.9.2.2.1.5.3.6.6.2.3.3.6.4.9,0,.4.1.7.1,1.2ZM161.7,79.3c0-.5,0-1.1-.2-1.5-.1-.5-.3-.9-.6-1.2s-.6-.6-1-.8c-.4-.2-.8-.3-1.3-.3-.5,0-1,0-1.3.3-.4.2-.7.5-1,.8-.3.3-.5.7-.6,1.2-.1.5-.2,1-.2,1.5s0,1.1.2,1.5c.1.5.3.9.6,1.2.3.3.6.6,1,.8.4.2.8.3,1.3.3.5,0,1,0,1.3-.3.4-.2.7-.5,1-.8.3-.3.5-.7.6-1.2.1-.5.2-1,.2-1.5ZM152,82.9v-5.1c0-.5-.1-.9-.3-1.2-.2-.3-.5-.6-.9-.8-.4-.2-.8-.3-1.3-.3-.4,0-.7,0-1,.1-.3,0-.6.2-.8.3-.2.1-.4.3-.6.4-.1-.2-.3-.3-.5-.4-.2-.1-.5-.2-.8-.3-.3,0-.6-.1-1-.1-.5,0-.9,0-1.4.1-.4,0-.8.2-1.2.4v7h1.1v-6.3c.2,0,.4-.1.6-.2.2,0,.5,0,.8,0s.6,0,.9.2c.3.1.5.3.6.5.1.2.2.4.2.7v5.2h1.1v-5.9c.2-.2.4-.3.7-.5.3-.1.6-.2.9-.2.3,0,.6,0,.8.2.2.1.4.3.6.5.1.2.2.5.2.8v5h1.1ZM134.8,82.9v-5c0-.5-.1-1-.3-1.3-.2-.4-.5-.6-1-.8-.4-.2-1-.3-1.6-.3-.5,0-1,0-1.5.1-.5,0-.9.2-1.2.4v7h1.1v-6.3c.2,0,.4-.1.7-.2.3,0,.6,0,.9,0,.4,0,.7,0,1,.2.3.1.5.3.6.6.1.2.2.5.2.9v4.9h1.1ZM125.4,82.9v-7.3h-1.1v7.3h1.1ZM125.5,73.4c0-.1,0-.2,0-.4,0-.1-.1-.2-.3-.3-.1,0-.2,0-.4,0-.1,0-.3,0-.4,0-.1,0-.2.1-.3.3,0,.1,0,.2,0,.4,0,.1,0,.2,0,.3,0,.1.1.2.3.2.1,0,.2,0,.4,0,.1,0,.3,0,.4,0,.1,0,.2-.1.3-.2,0-.1,0-.2,0-.3ZM116.7,82.9v-5c0-.5-.1-1-.3-1.3-.2-.4-.5-.6-1-.8-.4-.2-1-.3-1.6-.3-.5,0-1,0-1.5.1-.5,0-.9.2-1.2.4v7h1.1v-6.3c.2,0,.4-.1.7-.2.3,0,.6,0,.9,0,.4,0,.7,0,1,.2.3.1.5.3.6.6.1.2.2.5.2.9v4.9h1.1ZM106.5,79.3c0,.4,0,.8-.1,1.2,0,.4-.2.7-.4.9-.2.3-.4.5-.6.6-.2.1-.5.2-.9.2-.3,0-.6,0-.9-.2-.2-.1-.5-.3-.6-.6-.2-.3-.3-.6-.4-.9,0-.4-.1-.7-.1-1.2s0-.8.1-1.2c0-.3.2-.7.4-.9.2-.3.4-.5.6-.6.2-.1.5-.2.9-.2.3,0,.6,0,.9.2.2.1.5.3.6.6.2.3.3.6.4.9,0,.4.1.7.1,1.2ZM107.6,79.3c0-.5,0-1.1-.2-1.5-.1-.5-.3-.9-.6-1.2-.3-.3-.6-.6-1-.8-.4-.2-.8-.3-1.3-.3-.5,0-1,0-1.3.3-.4.2-.7.5-1,.8-.3.3-.5.7-.6,1.2-.1.5-.2,1-.2,1.5s0,1.1.2,1.5c.1.5.3.9.6,1.2.3.3.6.6,1,.8.4.2.8.3,1.3.3.5,0,1,0,1.3-.3.4-.2.7-.5,1-.8.3-.3.5-.7.6-1.2.1-.5.2-1,.2-1.5ZM97.8,82.9v-7.3h-1.1v7.3h1.1ZM98,73.4c0-.1,0-.2,0-.4,0-.1-.1-.2-.3-.3-.1,0-.2,0-.4,0-.1,0-.3,0-.4,0-.1,0-.2.1-.3.3,0,.1,0,.2,0,.4,0,.1,0,.2,0,.3,0,.1.1.2.3.2.1,0,.2,0,.4,0,.1,0,.3,0,.4,0,.1,0,.2-.1.3-.2,0-.1,0-.2,0-.3ZM93.3,82.9v-1c0,0-.1,0-.2,0,0,0-.2,0-.3,0-.2,0-.4,0-.6-.1-.2,0-.3-.2-.4-.3,0-.2-.1-.4-.2-.6v-4.5h1.6v-.9h-1.6v-2.1l-1.1.4v1.8h-1.1v.9h1.1v4.6c0,.4,0,.8.2,1.1.2.3.4.5.7.7.3.1.6.2,1,.2s.3,0,.4,0c.1,0,.2,0,.3,0ZM85.4,82c0,0-.2,0-.4.1-.2,0-.3,0-.5,0-.2,0-.4,0-.6,0-.4,0-.8,0-1.1-.2-.3-.1-.5-.3-.6-.5-.1-.2-.2-.5-.2-.7,0-.3,0-.6.2-.8.1-.2.3-.4.5-.5.2-.1.5-.2.8-.3.3,0,.6-.1.9-.1.3,0,.7,0,1,0v2.9ZM86.5,82.6v-4.7c0-.6-.1-1-.3-1.4-.2-.4-.5-.6-.9-.8-.4-.2-.9-.2-1.4-.2-.3,0-.6,0-.9,0-.3,0-.6.1-.8.2-.3,0-.5.2-.7.2l.3.8c.2,0,.4-.2.6-.2.2,0,.5-.1.7-.2.2,0,.5,0,.7,0,.3,0,.6,0,.9.1.3,0,.5.2.6.4.1.2.2.5.2.9v.6c-.4,0-.9,0-1.3.1-.4,0-.8.1-1.2.2-.4.1-.7.2-1,.4-.3.2-.5.4-.7.7-.2.3-.2.6-.3,1.1,0,.5.1.9.3,1.2.2.3.6.6,1,.8.4.2,1,.3,1.7.3.3,0,.6,0,1,0,.3,0,.6-.1.9-.2.3,0,.5-.2.7-.3ZM78.2,75.6h-1.3l-1.8,5.2c0,.1,0,.3-.1.4,0,.1,0,.2,0,.4,0,.1,0,.2,0,.3,0,0,0,0,0,.1h0s0,0,0-.1c0,0,0-.2,0-.3,0-.1,0-.2,0-.4,0-.1,0-.3-.1-.4l-1.8-5.2h-1.2l2.7,7.3h1.3l2.7-7.3ZM67.7,79.3c0,.4,0,.8-.1,1.2,0,.4-.2.7-.4.9-.2.3-.4.5-.6.6-.2.1-.5.2-.9.2-.3,0-.6,0-.9-.2-.2-.1-.5-.3-.6-.6-.2-.3-.3-.6-.4-.9,0-.4-.1-.7-.1-1.2s0-.8.1-1.2c0-.3.2-.7.4-.9.2-.3.4-.5.6-.6.2-.1.5-.2.9-.2.3,0,.6,0,.9.2.2.1.5.3.6.6.2.3.3.6.4.9,0,.4.1.7.1,1.2ZM68.8,79.3c0-.5,0-1.1-.2-1.5-.1-.5-.3-.9-.6-1.2-.3-.3-.6-.6-1-.8-.4-.2-.8-.3-1.3-.3-.5,0-1,0-1.3.3-.4.2-.7.5-1,.8-.3.3-.5.7-.6,1.2-.1.5-.2,1-.2,1.5s0,1.1.2,1.5c.1.5.3.9.6,1.2.3.3.6.6,1,.8.4.2.8.3,1.3.3.5,0,1,0,1.3-.3.4-.2.7-.5,1-.8.3-.3.5-.7.6-1.2.1-.5.2-1,.2-1.5ZM59.1,82.9v-5c0-.5-.1-1-.3-1.3-.2-.4-.5-.6-1-.8-.4-.2-1-.3-1.6-.3-.5,0-1,0-1.5.1-.5,0-.9.2-1.2.4v7h1.1v-6.3c.2,0,.4-.1.7-.2.3,0,.6,0,.9,0,.4,0,.7,0,1,.2.3.1.5.3.6.6.1.2.2.5.2.9v4.9h1.1ZM49.7,82.9v-5c0-.5-.1-1-.3-1.3-.2-.4-.5-.6-1-.8-.4-.2-1-.3-1.6-.3-.5,0-1,0-1.5.1-.5,0-.9.2-1.2.4v7h1.1v-6.3c.2,0,.4-.1.7-.2.3,0,.6,0,.9,0,.4,0,.7,0,1,.2.3.1.5.3.6.6.1.2.2.5.2.9v4.9h1.1ZM40.3,82.9v-7.3h-1.1v7.3h1.1ZM40.5,73.4c0-.1,0-.2,0-.4,0-.1-.1-.2-.3-.3-.1,0-.2,0-.4,0-.1,0-.3,0-.4,0-.1,0-.2.1-.3.3,0,.1,0,.2,0,.4,0,.1,0,.2,0,.3,0,.1.1.2.3.2.1,0,.2,0,.4,0,.1,0,.3,0,.4,0,.1,0,.2-.1.3-.2,0-.1,0-.2,0-.3Z" fill="#010101"/>
        <rect x="377.1" y=".7" width="27.9" height="108.7" fill="#010101"/>
        <rect x=".8" y=".7" width="404.2" height="108.7" fill="none" stroke="#010101" stroke-miterlimit="2.6" stroke-width="1"/>
      </g>
    </g>
  </g>
</svg>